<svg xmlns="http://www.w3.org/2000/svg" viewBox="0 0 131 131" fill="none">
    <circle cx="65.5" cy="65.5" r="65.5" fill="url(#p1)"/>
    <circle cx="65.5" cy="65.5" r="57.5" fill="white"/>
    <circle cx="65.5" cy="65.5" r="50.5" fill="url(#p2)"/>
    <path fill-rule="evenodd" clip-rule="evenodd"
          d="M57.125 26.4307C54.56 26.9966 52.9521 27.9739 52.9521 27.9739V38.7764H61.8131V26.0192C61.8131 26.0192 59.69 25.8649 57.125 26.4307ZM72.7864 26.4499C75.3514 27.0158 76.9593 27.9931 76.9593 27.9931V38.7956H68.0982V26.0384C68.0982 26.0384 70.2213 25.8841 72.7864 26.4499ZM77.1138 41.2685H41V60.7421V69.3971V88.8707H77.1138C84.8813 88.8707 91.1781 82.5739 91.1781 74.8064C91.1781 71.0275 89.6877 67.5966 87.2627 65.0696C89.6877 62.5426 91.1781 59.1117 91.1781 55.3328C91.1781 47.5653 84.8813 41.2685 77.1138 41.2685ZM49.758 50.0266H77.1653C80.0675 50.0266 82.4201 52.3793 82.4201 55.2814C82.4201 58.1836 80.0675 60.5362 77.1653 60.5362H49.758V50.0266ZM77.1653 69.3972H49.758V79.9068H77.1653C80.0675 79.9068 82.4201 77.5541 82.4201 74.652C82.4201 71.7499 80.0675 69.3972 77.1653 69.3972ZM76.9593 102.268C76.9593 102.268 75.3514 103.245 72.7864 103.811C70.2213 104.377 68.0983 104.223 68.0983 104.223V91.4657H76.9593V102.268ZM52.9521 102.249C52.9521 102.249 54.56 103.226 57.125 103.792C59.69 104.358 61.8131 104.204 61.8131 104.204V91.4465H52.9521L52.9521 102.249Z"
          fill="white"/>
    <defs>
        <linearGradient id="p1" x1="157.363" y1="103.116" x2="-25.5329" y2="104.116"
                        gradientUnits="userSpaceOnUse">
            <stop stop-color="#FFA800"/>
            <stop offset="1" stop-color="#FF820A"/>
            <stop offset="1" stop-color="#FE9C3F"/>
        </linearGradient>
        <linearGradient id="p2" x1="136.326" y1="94.5017" x2="-4.68565" y2="95.273"
                        gradientUnits="userSpaceOnUse">
            <stop stop-color="#FFA800"/>
            <stop offset="1" stop-color="#FF820A"/>
            <stop offset="1" stop-color="#FE9C3F"/>
        </linearGradient>
    </defs>
</svg>
